<?xml version="1.0" encoding="UTF-8"?>
<svg xmlns="http://www.w3.org/2000/svg" version="1.1" viewBox="0 0 1000 79.74">
  <g>
    <g id="STANDARD">
      <g>
        <path d="M937.98,78.63h62.02v-31.01h-2.13v1.66c0,9.19-2.66,14.7-7.42,19.46-4.76,4.76-11.52,7.53-21.93,7.53h-5.62v-36.78h1.88c7.75,0,12.07.64,15.17,3.74,3.1,3.1,4.21,6.69,4.21,13.22v.55h2.13V19.63h-2.13v.55c0,6.53-1.22,10.12-4.21,13.22-3.1,3.21-7.42,3.74-15.17,3.74h-1.88V3.46h5.07c10.41,0,17.17,2.77,21.93,7.53,4.76,4.76,7.42,10.27,7.42,19.46v.55h2.13V1.11h-61.47v2.13h.55c4.1,0,7.09,1.22,9.3,3.43,2.21,2.21,3.43,5.2,3.43,10.96v44.47c0,5.76-1.22,8.75-3.43,10.96-2.21,2.22-5.21,3.43-9.3,3.43h-.55v2.13ZM815.94,78.63h28.8v-2.13c-3.21,0-7.2-1.44-10.08-4.32-2.77-2.77-3.07-6.98-3.07-13.4V16.13l46.27,63.61h.66V20.96c0-6.42,1.55-10.63,4.32-13.4,2.88-2.88,6.87-4.32,8.97-4.32V1.11h-28.8v2.13c3.21,0,5.95,1.44,8.83,4.32,2.77,2.77,4.32,6.98,4.32,13.4v35.32L835.87,1.11h-21.04v2.13c6.09,0,9.75,3.18,14.4,9.83v45.71c0,6.42-1.55,10.63-4.32,13.4-2.88,2.88-6.87,4.32-8.97,4.32v2.13ZM475.6,79.74h2.13c0-3.54,1.88-5.76,4.87-5.76,5.1,0,10.85,5.76,23.59,5.76,13.62,0,23.81-9.41,23.81-22.7,0-32.12-44.85-17.17-44.85-41.53,0-9.41,7.42-13.26,16.06-13.26,14.51,0,23.26,12.49,24.59,28.21h2.13V0h-2.13c0,3.54-1.66,5.21-4.1,5.21C517.15,5.21,512.17,0,501.21,0c-14.18,0-24.37,9.41-24.37,21.6,0,32.12,44.85,17.17,44.85,41.53,0,10.52-7.42,14.37-15.5,14.37-18.38,0-26.91-14.81-28.46-29.32h-2.13v31.56ZM373.19,76.28V3.46h.55c10.19,0,18.27.83,24.14,6.7,6.98,6.87,10.19,18.3,10.19,30.26,0,10.52-2.66,21.07-8.64,27.71-5.98,6.65-14.62,8.14-25.69,8.14h-.55ZM348.27,78.63h29.9c18.72,0,28.8-5.54,35.33-14.4,4.98-6.76,7.86-15.39,7.86-24.92,0-8.97-2.77-17.39-7.75-23.92-6.53-8.64-16.61-14.29-35.44-14.29h-29.9v2.13h.55c4.1,0,7.09,1.22,9.3,3.43,2.21,2.21,3.43,5.2,3.43,10.96v44.47c0,5.76-1.22,8.75-3.43,10.96-2.21,2.22-5.21,3.43-9.3,3.43h-.55v2.13ZM248.67,53.71l11.87-34.62,13.87,34.62h-25.74ZM226.34,78.63h28.57v-2.13c-7.75,0-9.79-2.52-9.79-8.28,0-2.33.44-5.43,1.44-8.42l1.09-3.49h27.75l1.87,4.6c1.22,3.1,1.99,5.87,1.99,8.31,0,6.98-6.2,7.28-10.41,7.28v2.13h35.55v-2.13c-7.53,0-10.08-4.07-12.51-10.16L265.43,0h-.66l-20.49,58.59c-4.76,13.73-10.96,17.91-17.94,17.91v2.13ZM35.44,45.32c5.76,0,9.3,1.22,11.52,3.43,2.21,2.22,3.43,5.21,3.43,10.96v3.63c0,5.1-.89,6.06-2.1,8.17-1.99,3.43-6.53,5.43-11.19,5.43-20.49,0-24.03-27.11-24.03-43.72,0-14.07,4.21-30.98,21.82-30.98,16.06,0,23.15,12.38,24.59,28.21h2.13V0h-2.13c-.22,2.88-1.44,4.43-4.32,4.43C50.39,4.43,45.85,0,34.89,0,11.85,0,0,18.83,0,40.42s12.51,39.32,33.22,39.32c13.73,0,16.39-7.2,21.6-7.2,3.43,0,5.21,2.88,5.21,7.2h2.13v-21.57c0-5.09,1-7.86,2.66-9.75,1.88-2.21,4.65-3.1,7.31-3.1h1.11v-2.13h-37.79v2.13Z" fill="#000"/>
        <path d="M594.23,78.63h40.42v-2.13h-.55c-5.21,0-8.2-1.22-10.41-3.43-2.21-2.21-3.43-5.2-3.43-10.96V3.46h.33c3.77,0,9.72,1.11,15.14,6.76,5.32,5.54,7.86,13.7,7.86,20.79v.55h2.13V1.11h-62.57v30.46h2.13v-.55c0-7.09,2.55-15.25,7.86-20.79,5.43-5.65,11.38-6.76,15.14-6.76h.33v58.64c0,5.76-1.22,8.75-3.43,10.96-2.21,2.22-5.2,3.43-10.41,3.43h-.55v2.13Z" fill="#000"/>
        <path d="M732.66,0C712.06,0,697.78,17.83,697.78,40.42s14.29,39.32,34.89,39.32,34.89-17.83,34.89-40.42S753.26,0,732.66,0ZM734.54,77.5c-15.17,0-23.48-20.35-23.48-44.27,0-13.18,3.88-30.98,19.6-30.98s23.59,20.35,23.59,44.27c0,13.18-3.88,30.98-19.71,30.98Z" fill="#000"/>
        <path d="M117.81,78.63h62.02v-38.76h-2.13v2.63c0,12.07-3.1,19.93-8.64,25.36-5.43,5.32-13.07,8.42-24.03,8.42h-2.3V17.64c0-5.76,1.22-8.75,3.43-10.96,2.21-2.22,5.21-3.43,10.41-3.43h.55V1.11h-39.32v2.13h.55c4.1,0,7.09,1.22,9.3,3.43,2.21,2.21,3.43,5.2,3.43,10.96v44.47c0,5.76-1.22,8.75-3.43,10.96-2.21,2.22-5.21,3.43-9.3,3.43h-.55v2.13Z" fill="#000"/>
      </g>
    </g>
  </g>
</svg>