<?xml version="1.0" encoding="utf-8"?>
<!-- Generator: Adobe Illustrator 28.1.0, SVG Export Plug-In . SVG Version: 6.00 Build 0)  -->
<svg version="1.1" id="Layer_1" xmlns="http://www.w3.org/2000/svg" xmlns:xlink="http://www.w3.org/1999/xlink" x="0px" y="0px"
	 viewBox="0 0 120 9.6" style="enable-background:new 0 0 120 9.6;" xml:space="preserve">
<g>
	<g id="SMALL" fill="#fff">
		<path d="M35,8l-3.2-8h-0.2l-2.5,7c-0.6,1.7-1.2,2-2,2v0.4h3.4V9c-0.9,0-1.2-0.1-1.2-0.8c0-0.3,0-0.7,0.2-1l0.1-0.4H33l0.2,0.6
			c0.2,0.4,0.2,0.7,0.2,1c0,0.8-0.7,0.7-1.2,0.7v0.4h4.3V9C35.6,9,35.3,8.7,35,8z M29.8,6.4l1.4-4.2l1.7,4.2H29.8L29.8,6.4z
			 M4.2,5.2h4.5v0.4H8.7c-0.3,0-0.8,0-1,0.2C7.4,6,7.5,6.4,7.5,7v2.6H7.1C7.1,9,7,8.8,6.6,8.8C6,8.8,5.6,9.6,4,9.6
			c-2.5,0-4-2.2-4-4.7S1.4,0,4.2,0c1.2,0,2,0.5,2.4,0.5C7,0.5,7,0.3,7.1,0h0.4v3.7H7.1c0-2-0.9-3.2-2.9-3.2C2.1,0.4,1.6,2.3,1.6,4
			c0,2,0.4,5.1,2.9,5.1C5.6,9.1,6,8.6,6,7.6V7.2c0-0.7,0-1.1-0.3-1.3C5.5,5.6,4.9,5.6,4.3,5.6C4.3,5.6,4.3,5.2,4.2,5.2z M21.2,4.8
			h0.4v4.7h-7.4V9h0.1c0.5,0,0.9,0,1.1-0.3c0.3-0.3,0.4-0.6,0.4-1.3V2.1c0-0.7-0.1-1-0.4-1.3c-0.3-0.3-0.6-0.3-1.1-0.3h-0.1V0.1h4.7
			v0.4h-0.1c-0.6,0-1,0-1.2,0.3c-0.3,0.3-0.4,0.6-0.4,1.3V9h0.3c1.3,0,2.2-0.2,2.9-0.9c0.7-0.7,0.9-1.6,0.9-3L21.2,4.8L21.2,4.8z
			 M45.4,0.1h-3.6v0.4h0.1c0.5,0,0.8,0,1.1,0.3c0.3,0.3,0.4,0.6,0.4,1.3v5.3c0,0.7-0.2,1.1-0.4,1.3C42.7,9.1,42.4,9,41.9,9h-0.1v0.4
			h3.6c2.2,0,3.5-0.7,4.2-1.7c0.6-0.8,0.9-1.8,0.9-3c0-1.1-0.3-2.1-0.9-2.9C48.9,0.8,47.6,0.1,45.4,0.1L45.4,0.1z M47.9,8.2
			C47.2,9,46.2,9,44.8,9h-0.1V0.6h0.1c1.2,0,2.2-0.1,2.9,0.7C48.6,2,49,3.4,49,4.8C49,6.1,48.7,7.4,47.9,8.2L47.9,8.2z M87.9,0
			c-2.5,0-4.2,2.1-4.2,4.8s1.7,4.7,4.2,4.7s4.2-2.1,4.2-4.8S90.4,0,87.9,0z M88.2,9.1c-1.8,0-2.8-2.3-2.8-5.2c0-1.6,0.5-3.6,2.3-3.6
			s2.8,2.3,2.8,5.2C90.5,7.2,90,9.1,88.2,9.1L88.2,9.1z M103.6,0.1h3.5v0.4c-0.2,0-0.7,0-1.1,0.4c-0.3,0.3-0.4,0.8-0.4,1.6v7h-0.2
			l-5.6-7.6v5.1c0,0.8,0,1.3,0.4,1.6C100.5,9,101,9,101.4,9v0.4h-3.5V9c0.2,0,0.7,0,1.1-0.4c0.3-0.3,0.4-0.8,0.4-1.6V1.4
			c-0.5-0.6-0.8-1-1.6-1V0.1h2.5l4.8,6.6V2.5c0-0.8-0.1-1.3-0.5-1.6s-0.7-0.4-1.1-0.4L103.6,0.1L103.6,0.1z M70,0.1h7.5v3.7h-0.4
			V3.7c0-0.9-0.2-1.8-0.8-2.5c-0.7-0.7-1.4-0.8-1.8-0.8h0v7c0,0.7,0.2,1,0.4,1.3C75.1,9,75.5,9,76.1,9h0.1v0.4h-4.8V9h0.1
			c0.6,0,1,0,1.2-0.3C72.9,8.5,73,8.1,73,7.4v-7h0c-0.4,0-1.2,0.1-1.8,0.8c-0.6,0.7-0.8,1.6-0.8,2.5v0.1H70V0.1z M63.6,6.8
			c0,1.6-1.2,2.7-2.9,2.7c-1.5,0-2.2-0.7-2.8-0.7c-0.4,0-0.4,0.3-0.4,0.7h-0.4V5.8h0.4c0.2,1.7,1.1,3.4,3.3,3.4c1,0,1.9-0.5,1.9-1.6
			c0-2.9-5.4-1.1-5.4-5c0-1.5,1.2-2.6,2.9-2.6c1.3,0,1.9,0.6,2.4,0.6c0.3,0,0.3-0.2,0.3-0.6h0.4v3.7h-0.4c-0.2-1.9-1.1-3.2-2.8-3.2
			c-1,0-1.9,0.6-1.9,1.5C58.2,4.6,63.6,3,63.6,6.8L63.6,6.8z M120,6.1v3.3h-7.4V9h0.1c0.5,0,0.8,0,1.1-0.3c0.3-0.3,0.4-0.6,0.4-1.3
			V2.1c0-0.7-0.2-1-0.4-1.3c-0.3-0.3-0.6-0.3-1.1-0.3h-0.1V0.1h7.4v3.2h-0.4c0-0.9-0.2-1.5-0.7-2c-0.6-0.6-1.4-0.8-2.6-0.8h-0.6v3.8
			h0.2c0.9,0,1.4,0,1.8-0.4c0.3-0.3,0.3-0.6,0.3-1.1h0.4v3.5H118c0-0.6,0-0.9-0.4-1.2c-0.4-0.4-0.9-0.4-1.8-0.4h-0.2V9h0.7
			c1.2,0,2.1-0.2,2.6-0.8c0.5-0.5,0.7-1.2,0.7-2.1L120,6.1L120,6.1z"/>
	</g>
</g>
</svg>
